<svg width="68" height="60" viewBox="0 0 68 60" fill="none" xmlns="http://www.w3.org/2000/svg">
<path d="M20.2107 0H19.1333C17.6105 0 16.2029 0.813638 15.4389 2.13549L0.576428 27.8498C-0.192142 29.1795 -0.192144 30.8205 0.576428 32.1502L14.9471 57.0135L14.408 46.0118C14.3888 45.6197 14.5106 45.2368 14.6098 44.8569C14.7506 44.3173 14.678 43.7349 14.3912 43.2387L6.73942 30L18.5048 9.64405L24.8368 20.3097L19.8013 29.0618C19.4198 29.7248 19.4198 30.5417 19.8013 31.2047L24.9154 40.0935L16.3002 54.6052L16.3568 54.639L14.9471 57.0135L15.4389 57.8645C16.2029 59.1864 17.6105 60 19.1333 60H48.8667C50.3895 60 51.7971 59.1864 52.5611 57.8645L66.8086 33.2143L57.4143 39.3198C57.0899 39.5306 56.704 39.6185 56.332 39.7249C55.8072 39.875 55.3513 40.2239 55.07 40.7106L47.6367 53.5714H24.3708L30.5734 43.1236H40.3738C41.1367 43.1236 41.8416 42.7152 42.2231 42.0522L47.3079 33.2143H66.8086L67.4236 32.1502C68.1921 30.8205 68.1921 29.1795 67.4236 27.8498L52.5611 2.13549C51.7971 0.813641 50.3895 0 48.8667 0H20.2107L30.3838 5.11292C30.727 5.2854 30.9962 5.57135 31.2738 5.83682C31.6657 6.21163 32.1912 6.42857 32.7472 6.42857H47.6366L59.4028 26.7857H47.1546L42.2231 18.2143C41.8416 17.5513 41.1367 17.1429 40.3738 17.1429H30.4136L21.8038 2.64038L21.7849 2.65168L20.2107 0Z" fill="#2563EB"/>
</svg>
